<svg xmlns="http://www.w3.org/2000/svg" xmlns:xlink="http://www.w3.org/1999/xlink" width="25.361" height="24.795" viewBox="280 440 25.361 24.795"><defs><linearGradient id="A" xlink:href="#I"><stop offset="0"/><stop offset="1" stop-opacity="0"/></linearGradient><linearGradient id="B" x1="1056.469" x2="218.63" y1="696.499" y2="641.196" xlink:href="#I"><stop offset="0" stop-color="#fff"/><stop offset="1" stop-color="#fff" stop-opacity="0"/></linearGradient><linearGradient id="C" x1="369.519" x2="385.293" y1="633.057" y2="633.057" xlink:href="#I"><stop offset="0" stop-opacity=".069"/><stop offset="1" stop-color="#fff"/></linearGradient><linearGradient id="D" x1="327.438" x2="408.899" y1="669.378" y2="669.378" xlink:href="#I"><stop offset="0" stop-color="#729fcf"/><stop offset="1" stop-color="#3465a4"/></linearGradient><linearGradient id="E" x1="10.496" x2="10.22" y1="93.338" y2="84.287" gradientTransform="matrix(24.28799 0 0 4.74375 259.721 421.903)" xlink:href="#I"><stop offset="0" stop-color="#fff"/><stop offset="1" stop-color="#babdb6"/></linearGradient><linearGradient id="F" x1="466.994" x2="466.994" y1="727.047" y2="948.241" xlink:href="#I"><stop offset="0" stop-opacity="0"/><stop offset=".5"/><stop offset="1" stop-opacity="0"/></linearGradient><radialGradient xlink:href="#A" id="G" cx="605.714" cy="486.648" r="117.143" fx="605.714" fy="486.648" gradientTransform="matrix(-.64478 0 0 .9108 737.676 393.104)"/><radialGradient xlink:href="#A" id="H" cx="605.714" cy="486.648" r="117.143" fx="605.714" fy="486.648" gradientTransform="matrix(.64478 0 0 .9108 271.845 393.104)"/><linearGradient id="I" gradientUnits="userSpaceOnUse"/></defs><g transform="matrix(.05374 0 0 .05 265.552 417.385)"><path fill="url(#F)" d="M349.092 727.048h311.337v221.194H349.092z" opacity=".402"/><path fill="url(#H)" d="M660.43 727.055v221.183c33.204.416 80.272-49.556 80.272-110.606s-37.054-110.577-80.273-110.577z" opacity=".402"/><path fill="url(#G)" d="M349.092 727.055v221.183c-33.205.416-80.273-49.556-80.273-110.606s37.054-110.577 80.273-110.577z" opacity=".402"/></g><path fill="#888a85" stroke="#204a87" stroke-linejoin="round" d="M282.604 441.912c.052-1.028.581-1.591 1.566-1.594l16.917-.048c.142 0 .328.107.342.241l1.88 17.689-.759.03.363 3.459c.035.335-.105.622-.618.624l-17.715.078c-1.461.006-2.962-1.116-2.892-2.498z" stroke-width=".557"/><g transform="matrix(.05374 0 0 .05 265.552 417.385)"><path fill="url(#E)" d="M679.684 805.639l-313.295 1.341c-16.707 1.91-30.189 14.986-30.189 32.202s13.482 30.293 30.189 32.202l313.295 1.341v-.67c-17.771-.84-32.202-14.895-32.202-32.873s14.43-32.033 32.202-32.872z"/><path fill="url(#D)" d="M352.972 461.484c-18.322 0-28.31 10.83-29.183 30.713l-17.778 345.115c-.987 33.043 19.61 51.83 40.923 57.217-45.62-17.504-39.581-96.517 17.442-96.187h331.659l-35.556-332.235c-.277-2.583-3.735-4.623-6.374-4.623z"/></g><path fill="url(#C)" d="M369.52 474.17h21.467v317.774h-21.468z" opacity=".48" transform="matrix(.05374 0 -.00193 .04997 265.552 417.385)"/><path fill="none" stroke="url(#B)" stroke-miterlimit="20" stroke-width="10.734" d="M354.985 467.078c-18.074 0-25.081 7.86-25.943 27.416L315.1 815.323c10.018-17.247 26.186-23.43 52.085-23.43H688.68l-30.333-320.267c-.241-2.545-3.684-4.548-6.287-4.548z" transform="matrix(.05374 0 0 .05 265.552 417.385)"/></svg>