<svg width="25.361" height="24.795" viewBox="280 440 25.361 24.795" xmlns:xlink="http://www.w3.org/1999/xlink" xmlns="http://www.w3.org/2000/svg"><defs><linearGradient id="a"><stop offset="0" stop-color="#fff"/><stop offset="1" stop-color="#fff" stop-opacity="0"/></linearGradient><linearGradient id="b"><stop offset="0" stop-opacity=".069"/><stop offset="1" stop-color="#fff"/></linearGradient><linearGradient id="d"><stop offset="0" stop-color="#fff"/><stop offset="1" stop-color="#babdb6"/></linearGradient><linearGradient id="c"><stop offset="0" stop-color="#729fcf"/><stop offset="1" stop-color="#3465a4"/></linearGradient><linearGradient id="e"><stop offset="0" stop-opacity="0"/><stop offset=".5"/><stop offset="1" stop-opacity="0"/></linearGradient><linearGradient id="f"><stop offset="0"/><stop offset="1" stop-opacity="0"/></linearGradient><linearGradient xlink:href="#a" id="m" x1="73.362" x2="-2.758" y1="26.652" y2="21.27" gradientTransform="matrix(11.00682 0 0 10.27557 248.987 422.635)" gradientUnits="userSpaceOnUse"/><linearGradient xlink:href="#b" id="l" x1="35.433" x2="41.219" y1="4.953" y2="4.953" gradientTransform="matrix(2.7264 0 0 40.35736 272.914 433.167)" gradientUnits="userSpaceOnUse"/><linearGradient xlink:href="#c" id="k" x1="6.587" x2="14.511" y1="22.133" y2="22.133" gradientTransform="matrix(10.28037 0 0 11.0343 259.721 425.156)" gradientUnits="userSpaceOnUse"/><linearGradient xlink:href="#d" id="j" x1="10.496" x2="10.22" y1="93.338" y2="84.287" gradientTransform="matrix(24.28799 0 0 4.74375 259.721 421.903)" gradientUnits="userSpaceOnUse"/><linearGradient xlink:href="#e" id="g" x1="302.857" x2="302.857" y1="366.648" y2="609.505" gradientTransform="matrix(.64478 0 0 .9108 271.718 393.104)" gradientUnits="userSpaceOnUse"/><radialGradient xlink:href="#f" id="i" cx="605.714" cy="486.648" r="117.143" fx="605.714" fy="486.648" gradientTransform="matrix(-.64478 0 0 .9108 737.676 393.104)" gradientUnits="userSpaceOnUse"/><radialGradient xlink:href="#f" id="h" cx="605.714" cy="486.648" r="117.143" fx="605.714" fy="486.648" gradientTransform="matrix(.64478 0 0 .9108 271.845 393.104)" gradientUnits="userSpaceOnUse"/></defs><path fill="none" d="M-53.699 103.533h850v850h-850z"/><path fill="url(#g)" d="M349.092 727.048h311.337v221.194H349.092z" opacity=".402" overflow="visible" style="fill:url(#g);marker:none" transform="matrix(.05374 0 0 .05 265.552 417.385)"/><path fill="url(#h)" d="M660.43 727.055v221.183c33.204.416 80.272-49.556 80.272-110.606s-37.054-110.577-80.273-110.577z" opacity=".402" overflow="visible" style="fill:url(#h);marker:none" transform="matrix(.05374 0 0 .05 265.552 417.385)"/><path fill="url(#i)" d="M349.092 727.055v221.183c-33.205.416-80.273-49.556-80.273-110.606s37.054-110.577 80.273-110.577z" opacity=".402" overflow="visible" style="fill:url(#i);marker:none" transform="matrix(.05374 0 0 .05 265.552 417.385)"/><path fill="#888a85" stroke="#204a87" stroke-linecap="round" stroke-linejoin="round" stroke-width="10.734" d="M317.301 490.53c.975-20.555 10.816-31.818 29.138-31.874l314.791-.966c2.647-.008 6.103 2.148 6.368 4.83l34.976 353.77-14.118.607 6.754 69.187c.655 6.708-1.947 12.444-11.5 12.489l-329.646 1.561c-27.184.129-55.123-22.313-53.812-49.956z" overflow="visible" style="marker:none" transform="matrix(.05374 0 0 .05 265.552 417.385)"/><path fill="url(#j)" d="m679.684 805.639-313.295 1.341c-16.707 1.91-30.189 14.986-30.189 32.202 0 17.216 13.482 30.293 30.189 32.202l313.295 1.341v-.67c-17.771-.84-32.202-14.895-32.202-32.873 0-17.978 14.43-32.033 32.202-32.872z" overflow="visible" style="fill:url(#j);marker:none" transform="matrix(.05374 0 0 .05 265.552 417.385)"/><path fill="url(#k)" d="M352.972 461.484c-18.322 0-28.31 10.83-29.183 30.713l-17.778 345.115c-.987 33.043 19.61 51.83 40.923 57.217-45.62-17.504-39.581-96.517 17.442-96.187h331.659l-35.556-332.235c-.277-2.583-3.735-4.623-6.374-4.623z" overflow="visible" style="fill:url(#k);marker:none" transform="matrix(.05374 0 0 .05 265.552 417.385)"/><path fill="url(#l)" d="M369.52 474.17h21.467v317.774h-21.468z" opacity=".48" overflow="visible" style="fill:url(#l);marker:none" transform="matrix(.05374 0 -.00193 .04997 265.552 417.385)"/><path fill="none" stroke="url(#m)" stroke-linecap="round" stroke-miterlimit="20" stroke-width="10.734" d="M354.985 467.078c-18.074 0-25.081 7.86-25.943 27.416L315.1 815.323c10.018-17.247 26.186-23.43 52.085-23.43H688.68l-30.333-320.267c-.241-2.545-3.684-4.548-6.287-4.548z" overflow="visible" style="stroke:url(#m);marker:none" transform="matrix(.05374 0 0 .05 265.552 417.385)"/></svg>