<svg xmlns="http://www.w3.org/2000/svg" xmlns:xlink="http://www.w3.org/1999/xlink" width="617.628" height="425.624"
     viewBox="0 0 579.025 399.022"><defs><linearGradient id="A" gradientUnits="userSpaceOnUse"><stop offset="0" stop-color="#b3b3b3"/><stop offset="1" stop-color="#b3b3b3" stop-opacity="0"/></linearGradient><linearGradient id="B" x1="52.904" y1="-184.277" x2="49.689" y2="662.486" gradientUnits="userSpaceOnUse"><stop offset="0" stop-color="#999"/><stop offset="1" stop-color="#4d4d4d"/></linearGradient><linearGradient id="C" x1="1231.878" y1="278.657" x2="1241.145" y2="-141.895" gradientUnits="userSpaceOnUse"><stop offset="0" stop-color="#999"/><stop offset="1" stop-color="#4d4d4d"/></linearGradient><linearGradient xlink:href="#A" id="D" x1="138.729" y1="-69.322" x2="-388.438" y2="746.217"/><linearGradient xlink:href="#A" id="E" x1="637.808" y1="70.636" x2="1340.284" y2="70.636"/><path id="F" d="M315.739 100.884a9.13 9.13 0 1 1-18.259 0 9.13 9.13 0 1 1 18.259 0z"/><path id="G" d="M314.653 100.884a8.043 8.043 0 1 1-16.086 0 8.043 8.043 0 1 1 16.086 0z"/><path id="H" d="M313.635 100.884a7.026 7.026 0 1 1-14.051 0 7.026 7.026 0 1 1 14.051 0z"/><path id="I" d="M308.1 94.023a6.751 6.751 0 0 1-2.695 12.939 6.751 6.751 0 0 1-3.873-1.225 7.026 7.026 0 0 0 12.104-4.854 7.026 7.026 0 0 0-5.535-6.861z"/></defs><g transform="matrix(.611407 0 0 .611407 13.29981 -7.14241)"><g transform="matrix(1.143305 0 0 1.143305 -720.97712 173.91117)"><path d="M931.525 283.477h115.043c.814 0 1.47.792 1.47 1.775v124.282c0 .983-.656 1.775-1.47 1.775H931.525c-.814 0-1.47-.792-1.47-1.775V285.252c0-.983.656-1.775 1.47-1.775z" fill="#666"/><path d="M986.361 428.795h22.718 170.38c3.465 0 3.916-5.421 4.724-8.926 1.688-7.319 2.037-10.042.648-12.876-.795-1.622-2.47-2.87-3.505-2.87h-172.248-22.481l-.237 24.673z" fill="#4d4d4d"/><path d="M986.582 404.123h-17.57-172.248c-1.035 0-2.71 1.249-3.505 2.87-1.389 2.834-1.039 5.558.648 12.876.808 3.505 1.259 8.926 4.724 8.926h170.38 17.333l.237-24.673z" fill="#666"/><path d="M988.454 428.795h20.625 170.38c2.712 0 3.575-3.317 4.211-6.441.792-3.879 1.717-8.297 2.013-11.045-1.233 4.289-3.08 10.486-6.207 11.045h-170.398-20.563l-.062 6.441z" fill="#333"/><path d="M988.499 422.354h-19.487-170.398c-3.127-.559-4.974-6.756-6.207-11.045.297 2.748 1.221 7.166 2.013 11.045.636 3.124 1.498 6.441 4.21 6.441h170.38 19.425l.062-6.441z" fill="#1a1a1a"/><path d="M933.468 289.166c-.787 0-1.42.865-1.42 1.939v80.899l113.998.775v-81.674c0-1.074-.633-1.939-1.42-1.939H933.468z" fill="#666"/><path d="M1046.045 332.309l-113.998-1.336v94.483c0 1.851.633 3.34 1.42 3.34h111.157c.787 0 1.42-1.49 1.42-3.34v-93.147z" fill="#ccc"/><path d="M1046.045 428.594l-113.998.339V404.97c0-.469.633-.847 1.42-.847h111.157c.787 0 1.42.378 1.42.847v23.624z" fill="#999"/><path d="M622.676-141.895h732.74c6.146 0 11.094 4.505 11.094 10.101v404.859c0 5.596-4.948 10.101-11.094 10.101h-732.74c-6.146 0-11.094-4.505-11.094-10.101v-404.859c0-5.596 4.948-10.101 11.094-10.101z"/><path d="M644.624-115.484h688.843c3.776 0 6.816 2.864 6.816 6.421v359.397c0 3.557-3.04 6.421-6.816 6.421H644.624c-3.776 0-6.816-2.864-6.816-6.421v-359.397c0-3.557 3.04-6.421 6.816-6.421z" fill="url(#E)"/><g transform="matrix(.207926 0 0 .207926 448.73294 -291.13998)"><path d="M2633.467 788.111a34.889 34.889 0 0 1-69.778 0 34.889 34.889 0 0 1 69.778 0z" fill="#1a1a1a"/><g transform="matrix(-3.325396 0 0 -3.325396 3618.1763 1123.5902)"><use xlink:href="#F" fill="gray"/><use xlink:href="#G" fill="#1a1a1a"/><use xlink:href="#H"/><g fill="#999"><use xlink:href="#I"/><path d="M305.518 105.422a4.447 4.447 0 0 1 1.776-8.524 4.447 4.447 0 0 1 2.551.807 4.628 4.628 0 0 0-7.973 3.197 4.628 4.628 0 0 0 3.646 4.52z"/></g></g></g><path d="M1129.472-137.385l-27.134 17.358h231.074c6.42 0 11.746 4.72 11.746 10.407v360.109c0 5.688-5.327 10.474-11.746 10.407h-217.676l-8.668 17.76h248.349c3.339 0 6.004-2.351 6.004-5.592v-404.859c0-3.241-2.666-5.592-6.004-5.592z" fill="url(#C)"/></g><path d="M5.484 393.189c0 2.155-.856 4.222-2.38 5.746s-3.591 2.38-5.746 2.38a8.13 8.13 0 0 1-8.126-8.126 8.13 8.13 0 0 1 8.126-8.126c2.155 0 4.222.856 5.746 2.38s2.38 3.591 2.38 5.746z" fill="#1a1a1a"/><g transform="matrix(-.365804 0 0 -.365804 819.20063 586.54278)"><g transform="matrix(1.258334 0 0 1 74.91691 0)"><path d="M184.61 84.582c79.05-4.566 160.27-4.793 244 0 9.956.57 18 8.028 18 18v529.714c0 9.972-8.05 17.34-18 18-81.333 5.395-162.667 5.926-244 0-9.946-.725-18-8.028-18-18V102.582c0-9.972 8.045-17.425 18-18z" transform="matrix(1.535714 0 0 1.535714 -545.86472 -337.10183)"/><path d="M-248.721-158.932H98.721c14.2 0 25.631 10.174 25.631 22.812v671.316c0 12.638-11.431 22.812-25.631 22.812h-347.442c-14.2 0-25.631-10.174-25.631-22.812v-671.316c0-12.638 11.431-22.812 25.631-22.812z" fill="url(#D)"/><path d="M-31.595-207.103l5.87 43.048H98.721c16.646 0 30.753 12.207 30.753 27.934v671.317c0 15.727-14.107 27.934-30.753 27.934H16.093l-51.59 99.357c49.168-.79 98.339-2.767 147.516-6.029 12.95-.859 22.859-9.975 22.859-22.532v-813.491c0-12.559-9.913-21.79-22.814-22.529-48.437-2.773-96.288-4.373-143.658-5.009z" fill="url(#B)"/></g><path d="M4.557-185.933h4.64c.798 0 1.44.642 1.44 1.44v4.64c0 .798-.642 1.44-1.44 1.44h-4.64c-.798 0-1.44-.642-1.44-1.44v-4.64c0-.798.642-1.44 1.44-1.44zm-6.414 796.048c0 6.2-2.463 12.145-6.847 16.529s-10.329 6.847-16.529 6.847-12.145-2.463-16.529-6.847-6.847-10.329-6.847-16.529 2.463-12.145 6.847-16.529 10.329-6.847 16.529-6.847 12.145 2.463 16.529 6.847 6.847 10.329 6.847 16.529zm-9.355-792.288c0 7.743-6.277 14.021-14.021 14.021a14.02 14.02 0 1 1 0-28.042c7.743 0 14.021 6.277 14.021 14.021z" fill="gray"/><path d="M-12.881-182.173a12.35 12.35 0 0 1-12.352 12.352 12.35 12.35 0 0 1-12.352-12.352c0-6.822 5.53-12.352 12.352-12.352s12.352 5.53 12.352 12.352z" fill="#333"/><path d="M-14.444-182.173a10.79 10.79 0 0 1-10.789 10.789 10.79 10.79 0 0 1-10.789-10.789 10.79 10.79 0 0 1 18.418-7.629 10.79 10.79 0 0 1 3.16 7.629z" fill="#1a1a1a"/><path d="M-22.944-192.71a10.37 10.37 0 0 1-4.139 19.871 10.37 10.37 0 0 1-5.948-1.881 10.79 10.79 0 0 0 18.588-7.454 10.79 10.79 0 0 0-8.5-10.537z" fill="#999"/><g transform="matrix(-2.66377 0 0 -2.66377 791.50432 878.84673)"><use xlink:href="#F" fill="gray"/><use xlink:href="#G" fill="#1a1a1a"/><use xlink:href="#H"/><use xlink:href="#I" fill="#999"/></g></g><g transform="matrix(.365543 0 0 .365543 617.42106 465.04757)"><g fill="gray"><path d="M326.007 98.435h3.021c.52 0 .938.418.938.938v3.021c0 .52-.418.938-.938.938h-3.021c-.52 0-.938-.418-.938-.938v-3.021c0-.52.418-.938.938-.938z"/><use xlink:href="#F"/></g><use xlink:href="#G" fill="#333"/><use xlink:href="#H" fill="#1a1a1a"/><use xlink:href="#I" fill="#999"/></g></g></svg>