<?xml version="1.0" encoding="UTF-8"?>
<!DOCTYPE svg PUBLIC "-//W3C//DTD SVG 1.1//EN" "http://www.w3.org/Graphics/SVG/1.1/DTD/svg11.dtd">
<svg xmlns="http://www.w3.org/2000/svg" version="1.1" width="32px" height="32px" style="shape-rendering:geometricPrecision; text-rendering:geometricPrecision; image-rendering:optimizeQuality; fill-rule:evenodd; clip-rule:evenodd" xmlns:xlink="http://www.w3.org/1999/xlink">
<g><path style="opacity:1" fill="#653333" d="M 7.5,-0.5 C 8.5,-0.5 9.5,-0.5 10.5,-0.5C 11.1098,0.391047 11.4431,1.39105 11.5,2.5C 10.2921,3.23411 8.95875,3.56745 7.5,3.5C 7.5,2.16667 7.5,0.833333 7.5,-0.5 Z"/></g>
<g><path style="opacity:0.996" fill="#a7bc6a" d="M 11.5,2.5 C 11.5,3.83333 11.5,5.16667 11.5,6.5C 11.1667,6.5 10.8333,6.5 10.5,6.5C 9.83333,6.83333 9.16667,7.16667 8.5,7.5C 7.83333,6.5 7.16667,5.5 6.5,4.5C 6.5,3.83333 6.83333,3.5 7.5,3.5C 8.95875,3.56745 10.2921,3.23411 11.5,2.5 Z"/></g>
<g><path style="opacity:1" fill="#f5dd80" d="M 6.5,4.5 C 7.16667,5.5 7.83333,6.5 8.5,7.5C 8.5,7.83333 8.5,8.16667 8.5,8.5C 8.16667,8.5 7.83333,8.5 7.5,8.5C 5.79734,9.66015 5.13068,8.99349 5.5,6.5C 5.5,6.16667 5.5,5.83333 5.5,5.5C 5.5,4.83333 5.83333,4.5 6.5,4.5 Z"/></g>
<g><path style="opacity:1" fill="#f6db77" d="M 5.5,6.5 C 5.13068,8.99349 5.79734,9.66015 7.5,8.5C 7.5,10.8333 7.5,13.1667 7.5,15.5C 6.69808,14.0484 6.19808,12.3817 6,10.5C 5.53566,11.0944 5.36899,11.7611 5.5,12.5C 4.83333,13.5 4.16667,14.5 3.5,15.5C 3.06786,12.1226 3.73452,9.12262 5.5,6.5 Z"/></g>
<g><path style="opacity:1" fill="#f4d56e" d="M 10.5,6.5 C 10.5,8.83333 10.5,11.1667 10.5,13.5C 9.83333,11.8333 9.16667,10.1667 8.5,8.5C 8.5,8.16667 8.5,7.83333 8.5,7.5C 9.16667,7.16667 9.83333,6.83333 10.5,6.5 Z"/></g>
<g><path style="opacity:1" fill="#eebf3d" d="M 5.5,5.5 C 5.5,5.83333 5.5,6.16667 5.5,6.5C 3.73452,9.12262 3.06786,12.1226 3.5,15.5C 3.5,15.8333 3.5,16.1667 3.5,16.5C 2.83333,14.1667 2.16667,11.8333 1.5,9.5C 1.95681,7.22729 3.29014,5.89395 5.5,5.5 Z"/></g>
<g><path style="opacity:0.994" fill="#e7a00d" d="M 1.5,9.5 C 2.16667,11.8333 2.83333,14.1667 3.5,16.5C 3.5,17.1667 3.5,17.8333 3.5,18.5C 2.83333,18.5 2.16667,18.5 1.5,18.5C 0.31868,15.6377 0.31868,12.6377 1.5,9.5 Z"/></g>
<g><path style="opacity:0.62" fill="#f9eaa1" d="M 11.5,6.5 C 13.6436,10.2217 15.9769,13.8884 18.5,17.5C 18.5,18.1667 18.5,18.8333 18.5,19.5C 17.5,18.8333 16.5,18.1667 15.5,17.5C 14.3129,14.3877 12.9796,11.3877 11.5,8.5C 11.5,7.83333 11.5,7.16667 11.5,6.5 Z"/></g>
<g><path style="opacity:1" fill="#f9e079" d="M 5.5,12.5 C 5.23166,15.1194 5.565,17.6194 6.5,20C 5.90558,20.4643 5.23891,20.631 4.5,20.5C 4.67158,19.5084 4.33825,18.8417 3.5,18.5C 3.5,17.8333 3.5,17.1667 3.5,16.5C 3.5,16.1667 3.5,15.8333 3.5,15.5C 4.16667,14.5 4.83333,13.5 5.5,12.5 Z"/></g>
<g><path style="opacity:1" fill="#eeb32b" d="M 8.5,8.5 C 9.16667,10.1667 9.83333,11.8333 10.5,13.5C 10.5,13.8333 10.5,14.1667 10.5,14.5C 9.83333,14.5 9.5,14.8333 9.5,15.5C 8.53178,13.3926 8.19845,11.0593 8.5,8.5 Z"/></g>
<g><path style="opacity:1" fill="#f8d65e" d="M 11.5,8.5 C 12.9796,11.3877 14.3129,14.3877 15.5,17.5C 12.6423,15.2883 11.309,12.2883 11.5,8.5 Z"/></g>
<g><path style="opacity:1" fill="#eeb124" d="M 10.5,14.5 C 11.2931,18.9591 13.9598,21.2924 18.5,21.5C 18.8417,22.3382 19.5084,22.6716 20.5,22.5C 20.5,22.8333 20.5,23.1667 20.5,23.5C 19.8333,23.5 19.1667,23.5 18.5,23.5C 17.1667,23.1667 15.8333,22.8333 14.5,22.5C 13.205,21.5116 11.8717,20.5116 10.5,19.5C 10.1667,18.1667 9.83333,16.8333 9.5,15.5C 9.5,14.8333 9.83333,14.5 10.5,14.5 Z"/></g>
<g><path style="opacity:1" fill="#f8e47a" d="M 10.5,6.5 C 10.8333,6.5 11.1667,6.5 11.5,6.5C 11.5,7.16667 11.5,7.83333 11.5,8.5C 11.309,12.2883 12.6423,15.2883 15.5,17.5C 16.5,18.1667 17.5,18.8333 18.5,19.5C 18.5,20.1667 18.5,20.8333 18.5,21.5C 13.9598,21.2924 11.2931,18.9591 10.5,14.5C 10.5,14.1667 10.5,13.8333 10.5,13.5C 10.5,11.1667 10.5,8.83333 10.5,6.5 Z"/></g>
<g><path style="opacity:1" fill="#f8d75b" d="M 7.5,15.5 C 7.22911,17.3797 7.89578,18.713 9.5,19.5C 9.32842,20.4916 9.66175,21.1583 10.5,21.5C 10.5,22.5 10.5,23.5 10.5,24.5C 8.83333,23.8333 7.16667,23.1667 5.5,22.5C 5.16667,21.8333 4.83333,21.1667 4.5,20.5C 5.23891,20.631 5.90558,20.4643 6.5,20C 5.565,17.6194 5.23166,15.1194 5.5,12.5C 5.36899,11.7611 5.53566,11.0944 6,10.5C 6.19808,12.3817 6.69808,14.0484 7.5,15.5 Z"/></g>
<g><path style="opacity:1" fill="#f9e28d" d="M 7.5,8.5 C 7.83333,8.5 8.16667,8.5 8.5,8.5C 8.19845,11.0593 8.53178,13.3926 9.5,15.5C 9.83333,16.8333 10.1667,18.1667 10.5,19.5C 10.1667,19.5 9.83333,19.5 9.5,19.5C 7.89578,18.713 7.22911,17.3797 7.5,15.5C 7.5,13.1667 7.5,10.8333 7.5,8.5 Z"/></g>
<g><path style="opacity:0.965" fill="#e59c06" d="M 1.5,18.5 C 2.16667,18.5 2.83333,18.5 3.5,18.5C 3.76781,20.099 3.43448,21.4324 2.5,22.5C 1.76589,21.2921 1.43255,19.9587 1.5,18.5 Z"/></g>
<g><path style="opacity:0.669" fill="#faeeb5" d="M 18.5,17.5 C 21.6432,18.6896 24.6432,20.0229 27.5,21.5C 26.8333,21.5 26.1667,21.5 25.5,21.5C 22.9214,21.6061 20.588,20.9395 18.5,19.5C 18.5,18.8333 18.5,18.1667 18.5,17.5 Z"/></g>
<g><path style="opacity:1" fill="#e2a516" d="M 3.5,18.5 C 4.33825,18.8417 4.67158,19.5084 4.5,20.5C 4.83333,21.1667 5.16667,21.8333 5.5,22.5C 4.66175,22.8417 4.32842,23.5084 4.5,24.5C 3.5,24.1667 2.83333,23.5 2.5,22.5C 3.43448,21.4324 3.76781,20.099 3.5,18.5 Z"/></g>
<g><path style="opacity:1" fill="#f8e49a" d="M 9.5,19.5 C 9.83333,19.5 10.1667,19.5 10.5,19.5C 11.8717,20.5116 13.205,21.5116 14.5,22.5C 13.8333,22.5 13.5,22.8333 13.5,23.5C 12.5,22.8333 11.5,22.1667 10.5,21.5C 9.66175,21.1583 9.32842,20.4916 9.5,19.5 Z"/></g>
<g><path style="opacity:1" fill="#fae77e" d="M 18.5,19.5 C 20.588,20.9395 22.9214,21.6061 25.5,21.5C 24.0813,22.4511 22.4147,22.7845 20.5,22.5C 19.5084,22.6716 18.8417,22.3382 18.5,21.5C 18.5,20.8333 18.5,20.1667 18.5,19.5 Z"/></g>
<g><path style="opacity:1" fill="#f9dd65" d="M 10.5,21.5 C 11.5,22.1667 12.5,22.8333 13.5,23.5C 13.5,24.1667 13.5,24.8333 13.5,25.5C 12.5,25.5 11.5,25.5 10.5,25.5C 10.5,25.1667 10.5,24.8333 10.5,24.5C 10.5,23.5 10.5,22.5 10.5,21.5 Z"/></g>
<g><path style="opacity:1" fill="#f8e9ab" d="M 13.5,23.5 C 13.5,22.8333 13.8333,22.5 14.5,22.5C 15.8333,22.8333 17.1667,23.1667 18.5,23.5C 18.1583,24.3382 17.4916,24.6716 16.5,24.5C 15.391,24.4431 14.391,24.1098 13.5,23.5 Z"/></g>
<g><path style="opacity:1" fill="#fada56" d="M 25.5,21.5 C 26.1667,21.5 26.8333,21.5 27.5,21.5C 27.8333,21.5 28.1667,21.5 28.5,21.5C 28.5,22.8333 27.8333,23.5 26.5,23.5C 24.5,23.5 22.5,23.5 20.5,23.5C 20.5,23.1667 20.5,22.8333 20.5,22.5C 22.4147,22.7845 24.0813,22.4511 25.5,21.5 Z"/></g>
<g><path style="opacity:1" fill="#f5bf20" d="M 5.5,22.5 C 7.16667,23.1667 8.83333,23.8333 10.5,24.5C 10.5,24.8333 10.5,25.1667 10.5,25.5C 9.5,25.5 8.5,25.5 7.5,25.5C 6.83333,24.5 6.16667,23.5 5.5,22.5 Z"/></g>
<g><path style="opacity:1" fill="#eeb423" d="M 20.5,23.5 C 22.5,23.5 24.5,23.5 26.5,23.5C 25.8333,24.1667 25.1667,24.8333 24.5,25.5C 23.8333,25.1667 23.1667,24.8333 22.5,24.5C 21.5084,24.6716 20.8417,24.3382 20.5,23.5 Z"/></g>
<g><path style="opacity:0.851" fill="#d48e17" d="M 5.5,22.5 C 6.16667,23.5 6.83333,24.5 7.5,25.5C 7.5,25.8333 7.5,26.1667 7.5,26.5C 7.5,26.8333 7.5,27.1667 7.5,27.5C 6.16667,26.8333 5.16667,25.8333 4.5,24.5C 4.32842,23.5084 4.66175,22.8417 5.5,22.5 Z"/></g>
<g><path style="opacity:1" fill="#f6e49f" d="M 18.5,23.5 C 19.1667,23.5 19.8333,23.5 20.5,23.5C 20.8417,24.3382 21.5084,24.6716 22.5,24.5C 21.791,25.404 20.791,25.7373 19.5,25.5C 18.209,25.7373 17.209,25.404 16.5,24.5C 17.4916,24.6716 18.1583,24.3382 18.5,23.5 Z"/></g>
<g><path style="opacity:1" fill="#cb9118" d="M 28.5,21.5 C 29.3764,21.3691 30.0431,21.7025 30.5,22.5C 30.0576,23.7387 29.3909,24.7387 28.5,25.5C 27.8333,25.5 27.1667,25.5 26.5,25.5C 26.1667,25.5 25.8333,25.5 25.5,25.5C 25.1667,25.5 24.8333,25.5 24.5,25.5C 25.1667,24.8333 25.8333,24.1667 26.5,23.5C 27.8333,23.5 28.5,22.8333 28.5,21.5 Z"/></g>
<g><path style="opacity:1" fill="#fae577" d="M 13.5,23.5 C 14.391,24.1098 15.391,24.4431 16.5,24.5C 17.209,25.404 18.209,25.7373 19.5,25.5C 20.5676,26.4345 21.901,26.7678 23.5,26.5C 20.6727,27.3683 17.6727,27.3683 14.5,26.5C 13.8333,26.5 13.5,26.1667 13.5,25.5C 13.5,24.8333 13.5,24.1667 13.5,23.5 Z"/></g>
<g><path style="opacity:1" fill="#f8e386" d="M 22.5,24.5 C 23.1667,24.8333 23.8333,25.1667 24.5,25.5C 24.8333,25.5 25.1667,25.5 25.5,25.5C 25.1583,26.3382 24.4916,26.6716 23.5,26.5C 21.901,26.7678 20.5676,26.4345 19.5,25.5C 20.791,25.7373 21.791,25.404 22.5,24.5 Z"/></g>
<g><path style="opacity:0.922" fill="#c4881f" d="M 7.5,27.5 C 7.5,27.1667 7.5,26.8333 7.5,26.5C 8.83333,26.8333 10.1667,27.1667 11.5,27.5C 13.2608,28.3127 14.9275,29.3127 16.5,30.5C 13.2854,30.0951 10.2854,29.0951 7.5,27.5 Z"/></g>
<g><path style="opacity:1" fill="#eaa70e" d="M 7.5,26.5 C 7.5,26.1667 7.5,25.8333 7.5,25.5C 8.5,25.5 9.5,25.5 10.5,25.5C 11.5,25.5 12.5,25.5 13.5,25.5C 13.5,26.1667 13.8333,26.5 14.5,26.5C 14.5,26.8333 14.5,27.1667 14.5,27.5C 13.5,27.5 12.5,27.5 11.5,27.5C 10.1667,27.1667 8.83333,26.8333 7.5,26.5 Z"/></g>
<g><path style="opacity:0.996" fill="#ab8126" d="M 26.5,25.5 C 27.1667,25.5 27.8333,25.5 28.5,25.5C 28.7709,27.3797 28.1042,28.713 26.5,29.5C 26.5,28.8333 26.5,28.1667 26.5,27.5C 26.5,26.8333 26.5,26.1667 26.5,25.5 Z"/></g>
<g><path style="opacity:1" fill="#e29c07" d="M 11.5,27.5 C 12.5,27.5 13.5,27.5 14.5,27.5C 15.791,27.2627 16.791,27.596 17.5,28.5C 17.8333,29.1667 18.1667,29.8333 18.5,30.5C 17.8333,30.5 17.1667,30.5 16.5,30.5C 14.9275,29.3127 13.2608,28.3127 11.5,27.5 Z"/></g>
<g><path style="opacity:1" fill="#f5c329" d="M 25.5,25.5 C 25.8333,25.5 26.1667,25.5 26.5,25.5C 26.5,26.1667 26.5,26.8333 26.5,27.5C 24.8828,28.038 23.2161,28.3713 21.5,28.5C 20.1667,28.5 18.8333,28.5 17.5,28.5C 16.791,27.596 15.791,27.2627 14.5,27.5C 14.5,27.1667 14.5,26.8333 14.5,26.5C 17.6727,27.3683 20.6727,27.3683 23.5,26.5C 24.4916,26.6716 25.1583,26.3382 25.5,25.5 Z"/></g>
<g><path style="opacity:1" fill="#e69d03" d="M 17.5,28.5 C 18.8333,28.5 20.1667,28.5 21.5,28.5C 21.6107,29.1174 21.944,29.6174 22.5,30C 21.2068,30.49 19.8734,30.6567 18.5,30.5C 18.1667,29.8333 17.8333,29.1667 17.5,28.5 Z"/></g>
<g><path style="opacity:1" fill="#d39412" d="M 26.5,27.5 C 26.5,28.1667 26.5,28.8333 26.5,29.5C 25.2905,29.9321 24.2905,30.5987 23.5,31.5C 21.1667,31.5 18.8333,31.5 16.5,31.5C 16.5,31.1667 16.5,30.8333 16.5,30.5C 17.1667,30.5 17.8333,30.5 18.5,30.5C 19.8734,30.6567 21.2068,30.49 22.5,30C 21.944,29.6174 21.6107,29.1174 21.5,28.5C 23.2161,28.3713 24.8828,28.038 26.5,27.5 Z"/></g>
</svg>
