<svg xmlns="http://www.w3.org/2000/svg" width="198" height="126" fill-rule="evenodd"><path d="M182.9 122.9c.4 2.1 2.5 3.4 4.6 3l6.5-1.4c2.1-.4 3.4-2.5 3-4.6l-21.3-100c-.4-2.1-2.5-3.4-4.6-3l-6.5 1.4c-2.1.4-3.4 2.5-3 4.6l21.3 100h0z" fill="#244f1d"/><path d="M195.158 111.412l-14.085 2.994-1.746-8.216 14.085-2.994zm-16.256-76.575l-14.085 2.994-1.746-8.216 14.085-2.994z" fill="#ddd"/><path d="M148.6 122.1a3.84 3.84 0 0 0 3.9 3.9h4.6a3.84 3.84 0 0 0 3.9-3.9V6.1a3.84 3.84 0 0 0-3.9-3.9h-4.6a3.84 3.84 0 0 0-3.9 3.9v116h0z" fill="#30383c"/><path d="M148.6 12.8H161v4.4h-12.4zm0 92.2H161v8.4h-12.4zm0-13H161v8.4h-12.4z" fill="#89cdef"/><path d="M.5 122.1a3.84 3.84 0 0 0 3.9 3.9h23a3.84 3.84 0 0 0 3.9-3.9V4.2A3.84 3.84 0 0 0 27.4.3h-23A3.84 3.84 0 0 0 .5 4.2v117.9h0z" fill="#e5ed00"/><path d="M.5 105h30.8v8.4H.5zm0-13h30.8v8.4H.5zm0-68.1h30.8v8.4H.5zm0-13h30.8v8.4H.5z" fill="#1586ca"/><path d="M74.4 122.1a3.84 3.84 0 0 0 3.9 3.9h23a3.84 3.84 0 0 0 3.9-3.9V32.2a3.84 3.84 0 0 0-3.9-3.9h-23a3.84 3.84 0 0 0-3.9 3.9v89.9h0z" fill="#89cdef"/><path fill="#8b572a" d="M74.4 37.8h30.8v78.6H74.4z"/><path d="M74.4 43.7h30.8v2.4H74.4zm0 64.5h30.8v2.4H74.4z" fill="#89cdef"/><path d="M47.5 122.1a3.84 3.84 0 0 0 3.9 3.9h18.9a3.84 3.84 0 0 0 3.9-3.9v-76a3.84 3.84 0 0 0-3.9-3.9h-19a3.84 3.84 0 0 0-3.9 3.9v76h.1z" fill="#711561"/><path d="M54.2 114.5a3.12 3.12 0 0 0 3.1 3.1h7.1a3.12 3.12 0 0 0 3.1-3.1V53.7a3.12 3.12 0 0 0-3.1-3.1h-7.1a3.12 3.12 0 0 0-3.1 3.1v60.8h0z" fill="#22012d"/><path d="M31.7 122.1a3.84 3.84 0 0 0 3.9 3.9h7.6a3.84 3.84 0 0 0 3.9-3.9V23.2a3.84 3.84 0 0 0-3.9-3.9h-7.6a3.84 3.84 0 0 0-3.9 3.9v98.9h0z" fill="#a30000"/><path d="M105.2 122.9a3.12 3.12 0 0 0 3.1 3.1h10.5a3.12 3.12 0 0 0 3.1-3.1V6.4a3.12 3.12 0 0 0-3.1-3.1h-10.5a3.12 3.12 0 0 0-3.1 3.1v116.5h0z" fill="#ff4e00"/><path d="M105.2 11.6h16.7v9.9h-16.7zm0 96.7h16.7v9.9h-16.7z" fill="#5fb2de"/><path d="M121.9 122.9a3.12 3.12 0 0 0 3.1 3.1h20.5a3.12 3.12 0 0 0 3.1-3.1V11.8a3.12 3.12 0 0 0-3.1-3.1H125a3.12 3.12 0 0 0-3.1 3.1v111.1h0z" fill="#ddd"/><g fill="#eee"><path d="M126.9 22.2h16.7v7.5h-16.7zm0 10.6h16.7v7.5h-16.7zm0 10.5h16.7v7.5h-16.7z"/><circle cx="135.2" cy="112.7" r="5.4"/></g></svg>