<?xml version="1.0" encoding="UTF-8" standalone="no"?>
<svg width="198px" height="126px" viewBox="0 0 198 126" version="1.1" xmlns="http://www.w3.org/2000/svg" xmlns:xlink="http://www.w3.org/1999/xlink" xmlns:sketch="http://www.bohemiancoding.com/sketch/ns">
    <title>Untitled</title>
    <desc>Created with Sketch.</desc>
    <defs></defs>
    <g id="Page-1" stroke="none" stroke-width="1" fill="none" fill-rule="evenodd" sketch:type="MSPage">
        <g id="books" sketch:type="MSLayerGroup">
            <g id="Group" sketch:type="MSShapeGroup">
                <g transform="translate(161.000000, 16.000000)">
                    <path d="M21.9,106.9 C22.3,109 24.4,110.3 26.5,109.9 L33,108.5 C35.1,108.1 36.4,106 36,103.9 L14.7,3.9 C14.3,1.8 12.2,0.5 10.1,0.9 L3.6,2.3 C1.5,2.7 0.2,4.8 0.6,6.9 L21.9,106.9 L21.9,106.9 Z" id="Shape" fill="#244F1D"></path>
                    <rect id="Rectangle-path" fill="#DDDDDD" transform="translate(26.242150, 92.801090) rotate(168.000088) translate(-26.242150, -92.801090) " x="19.0425027" y="88.6012958" width="14.3992945" height="8.39958847"></rect>
                    <rect id="Rectangle-path" fill="#DDDDDD" transform="translate(9.986720, 16.225580) rotate(168.000088) translate(-9.986720, -16.225580) " x="2.78707274" y="12.0257858" width="14.3992945" height="8.39958847"></rect>
                </g>
                <g transform="translate(148.000000, 2.000000)">
                    <path d="M0.6,120.1 C0.6,122.3 2.3,124 4.5,124 L9.1,124 C11.3,124 13,122.3 13,120.1 L13,4.1 C13,1.9 11.3,0.2 9.1,0.2 L4.5,0.2 C2.3,0.2 0.6,1.9 0.6,4.1 L0.6,120.1 L0.6,120.1 Z" id="Shape" fill="#30383C"></path>
                    <rect id="Rectangle-path" fill="#89CDEF" x="0.6" y="10.8" width="12.4" height="4.4"></rect>
                    <rect id="Rectangle-path" fill="#89CDEF" x="0.6" y="103" width="12.4" height="8.4"></rect>
                    <rect id="Rectangle-path" fill="#89CDEF" x="0.6" y="90" width="12.4" height="8.4"></rect>
                </g>
                <g>
                    <path d="M0.5,122.1 C0.5,124.3 2.2,126 4.4,126 L27.4,126 C29.6,126 31.3,124.3 31.3,122.1 L31.3,4.2 C31.3,2 29.6,0.3 27.4,0.3 L4.4,0.3 C2.2,0.3 0.5,2 0.5,4.2 L0.5,122.1 L0.5,122.1 Z" id="Shape" fill="#E5ED00"></path>
                    <rect id="Rectangle-path" fill="#1586CA" x="0.5" y="105" width="30.8" height="8.4"></rect>
                    <rect id="Rectangle-path" fill="#1586CA" x="0.5" y="92" width="30.8" height="8.4"></rect>
                    <rect id="Rectangle-path" fill="#1586CA" x="0.5" y="23.9" width="30.8" height="8.4"></rect>
                    <rect id="Rectangle-path" fill="#1586CA" x="0.5" y="10.9" width="30.8" height="8.4"></rect>
                </g>
                <g transform="translate(74.000000, 28.000000)">
                    <path d="M0.4,94.1 C0.4,96.3 2.1,98 4.3,98 L27.3,98 C29.5,98 31.2,96.3 31.2,94.1 L31.2,4.2 C31.2,2 29.5,0.3 27.3,0.3 L4.3,0.3 C2.1,0.3 0.4,2 0.4,4.2 L0.4,94.1 L0.4,94.1 Z" id="Shape" fill="#89CDEF"></path>
                    <rect id="Rectangle-path" fill="#8B572A" x="0.4" y="9.8" width="30.8" height="78.6"></rect>
                    <g transform="translate(0.000000, 15.000000)" id="Rectangle-path" fill="#89CDEF">
                        <rect x="0.4" y="0.7" width="30.8" height="2.4"></rect>
                        <rect x="0.4" y="65.2" width="30.8" height="2.4"></rect>
                    </g>
                </g>
                <g transform="translate(47.000000, 42.000000)" id="Shape">
                    <path d="M0.5,80.1 C0.5,82.3 2.2,84 4.4,84 L23.3,84 C25.5,84 27.2,82.3 27.2,80.1 L27.2,4.1 C27.2,1.9 25.5,0.2 23.3,0.2 L4.3,0.2 C2.1,0.2 0.4,1.9 0.4,4.1 L0.4,80.1 L0.5,80.1 Z" fill="#711561"></path>
                    <path d="M7.2,72.5 C7.2,74.2 8.6,75.6 10.3,75.6 L17.4,75.6 C19.1,75.6 20.5,74.2 20.5,72.5 L20.5,11.7 C20.5,10 19.1,8.6 17.4,8.6 L10.3,8.6 C8.6,8.6 7.2,10 7.2,11.7 L7.2,72.5 L7.2,72.5 Z" fill="#22012D"></path>
                </g>
                <path d="M31.7,122.1 C31.7,124.3 33.4,126 35.6,126 L43.2,126 C45.4,126 47.1,124.3 47.1,122.1 L47.1,23.2 C47.1,21 45.4,19.3 43.2,19.3 L35.6,19.3 C33.4,19.3 31.7,21 31.7,23.2 L31.7,122.1 L31.7,122.1 Z" id="Shape" fill="#A30000"></path>
                <g transform="translate(105.000000, 3.000000)">
                    <path d="M0.2,119.9 C0.2,121.6 1.6,123 3.3,123 L13.8,123 C15.5,123 16.9,121.6 16.9,119.9 L16.9,3.4 C16.9,1.7 15.5,0.3 13.8,0.3 L3.3,0.3 C1.6,0.3 0.2,1.7 0.2,3.4 L0.2,119.9 L0.2,119.9 Z" id="Shape" fill="#FF4E00"></path>
                    <rect id="Rectangle-path" fill="#5FB2DE" x="0.2" y="8.6" width="16.7" height="9.9"></rect>
                    <rect id="Rectangle-path" fill="#5FB2DE" x="0.2" y="105.3" width="16.7" height="9.9"></rect>
                </g>
                <g transform="translate(121.000000, 8.000000)">
                    <path d="M0.9,114.9 C0.9,116.6 2.3,118 4,118 L24.5,118 C26.2,118 27.6,116.6 27.6,114.9 L27.6,3.8 C27.6,2.1 26.2,0.7 24.5,0.7 L4,0.7 C2.3,0.7 0.9,2.1 0.9,3.8 L0.9,114.9 L0.9,114.9 Z" id="Shape" fill="#DDDDDD"></path>
                    <rect id="Rectangle-path" fill="#EEEEEE" x="5.9" y="14.2" width="16.7" height="7.5"></rect>
                    <rect id="Rectangle-path" fill="#EEEEEE" x="5.9" y="24.8" width="16.7" height="7.5"></rect>
                    <rect id="Rectangle-path" fill="#EEEEEE" x="5.9" y="35.3" width="16.7" height="7.5"></rect>
                    <circle id="Oval" fill="#EEEEEE" cx="14.2" cy="104.7" r="5.4"></circle>
                </g>
            </g>
        </g>
    </g>
</svg>