<?xml version="1.0" standalone="no"?>
<!DOCTYPE svg PUBLIC "-//W3C//DTD SVG 20010904//EN"
 "http://www.w3.org/TR/2001/REC-SVG-20010904/DTD/svg10.dtd">
<svg version="1.0" xmlns="http://www.w3.org/2000/svg"
 width="512.000000pt" height="512.000000pt" viewBox="0 0 512.000000 512.000000"
 preserveAspectRatio="xMidYMid meet">
<metadata>
Created by potrace 1.14, written by Peter Selinger 2001-2017
</metadata>
<g transform="translate(0.000000,512.000000) scale(0.100000,-0.100000)"
fill="#000000" stroke="none">
<path d="M3372 4929 c-23 -24 -42 -51 -42 -62 0 -10 21 -69 46 -130 90 -220
91 -226 34 -252 -22 -10 -40 -22 -40 -27 0 -4 -8 -8 -18 -8 -10 0 -23 -5 -30
-12 -7 -7 -12 -8 -12 -2 0 5 -4 3 -8 -4 -8 -12 -34 -18 -112 -26 -19 -2 -42
-6 -50 -9 -8 -3 -64 -22 -123 -41 -60 -20 -152 -59 -205 -87 -118 -63 -252
-149 -252 -162 0 -6 -3 -8 -6 -4 -6 6 -39 -21 -115 -93 -26 -25 -51 -47 -56
-49 -4 -3 -17 -16 -28 -30 -11 -14 -37 -42 -57 -61 -21 -19 -38 -40 -38 -47 0
-7 -3 -13 -7 -13 -5 0 -21 -20 -38 -45 -16 -24 -33 -45 -37 -45 -5 0 -8 -6 -8
-13 0 -7 -8 -22 -17 -33 -10 -10 -30 -42 -44 -69 -29 -54 -17 -50 -165 -69
-47 -6 -54 -4 -80 21 -16 16 -42 45 -58 66 -63 85 -353 357 -379 357 -3 0 -18
11 -33 25 -15 14 -32 25 -38 25 -7 0 -40 26 -74 58 -42 39 -64 68 -68 90 -7
33 -30 60 -41 48 -4 -4 -7 -22 -8 -40 0 -18 -5 -39 -12 -47 -24 -29 -129 -251
-139 -291 -1 -5 -2 -9 -4 -10 -1 -2 -3 -10 -6 -18 -83 -313 -99 -428 -90 -658
7 -172 4 -191 -46 -264 -11 -16 -16 -28 -12 -28 3 0 1 -6 -5 -13 -6 -8 -12
-22 -14 -33 -1 -10 -5 -24 -9 -29 -12 -20 -47 -171 -67 -293 -22 -128 -40
-176 -89 -228 -72 -79 -132 -167 -132 -197 0 -9 -5 -17 -11 -19 -7 -2 -13 -31
-14 -67 -2 -34 -5 -64 -7 -67 -3 -2 -50 -6 -106 -8 -100 -4 -127 -10 -117 -26
6 -9 98 -23 169 -25 53 -1 71 -16 80 -66 l4 -26 -122 -5 c-68 -3 -131 -10
-144 -17 -28 -15 -25 -20 14 -25 16 -2 42 -8 57 -15 27 -10 109 -8 169 4 35 8
42 -6 44 -85 3 -98 34 -146 174 -264 50 -43 151 -116 159 -116 22 0 22 -33 1
-85 -27 -65 -43 -112 -46 -130 -1 -11 -3 -22 -5 -25 -1 -3 -3 -9 -4 -15 -2 -5
-4 -12 -5 -15 -18 -47 -24 -193 -10 -251 24 -97 93 -201 172 -255 22 -16 37
-33 34 -40 -3 -8 -1 -16 5 -19 5 -4 9 -12 7 -18 -12 -66 77 -200 140 -212 10
-2 17 -4 17 -5 0 -6 53 -12 130 -16 66 -3 103 0 139 12 45 15 53 15 95 1 25
-9 111 -27 191 -42 148 -26 200 -41 200 -56 0 -5 9 -9 19 -9 11 0 22 -4 26
-10 3 -5 12 -7 20 -3 8 3 15 1 15 -4 0 -12 38 -16 135 -15 101 1 115 3 115 15
0 6 3 8 6 5 3 -4 20 0 37 7 18 7 63 12 102 11 39 -1 82 2 98 6 17 4 27 3 27
-4 0 -7 4 -7 13 1 8 6 16 8 20 5 15 -15 368 -24 462 -11 100 13 183 48 258
107 33 27 55 37 70 34 12 -3 33 -7 46 -10 13 -3 32 -9 43 -15 10 -5 18 -7 18
-4 0 3 9 1 19 -5 56 -30 437 -29 493 1 10 5 18 7 18 3 0 -3 6 -2 13 4 6 6 15
11 20 11 4 1 8 1 10 2 1 0 9 2 17 4 24 4 139 56 190 86 105 60 300 261 300
308 0 6 4 11 8 11 7 0 30 37 37 60 1 3 5 14 10 25 4 11 14 35 22 54 43 108 57
304 28 413 -17 69 -62 168 -75 168 -6 0 -10 6 -10 13 0 32 -149 187 -180 187
-6 0 -10 5 -10 11 0 5 -4 7 -10 4 -5 -3 -10 -2 -10 3 0 4 -38 21 -85 37 -74
24 -99 28 -199 27 -98 -1 -120 -4 -167 -26 -65 -30 -83 -20 -49 26 57 77 109
158 102 158 -4 0 -2 4 3 8 29 21 189 402 225 537 11 44 30 121 41 170 11 50
22 99 25 110 15 70 23 119 29 190 2 28 8 86 13 130 10 84 8 366 -3 425 -4 19
-8 55 -10 80 -3 25 -7 63 -10 85 -4 22 -8 49 -9 60 -1 11 -8 38 -14 60 -6 22
-13 51 -15 65 -2 14 -6 32 -10 40 -3 8 -15 55 -28 104 -12 49 -31 112 -41 140
-11 28 -21 56 -22 61 -19 66 -105 231 -146 277 -40 46 -115 93 -165 103 -66
13 -81 16 -110 19 -44 3 -72 15 -73 29 0 6 -4 35 -7 62 -3 28 -7 68 -8 90 -2
22 -5 45 -8 50 -6 9 -5 117 1 123 1 1 4 7 5 12 1 6 4 13 5 18 1 4 2 10 1 15 0
4 4 7 9 7 22 0 8 32 -34 74 -43 44 -45 45 -123 52 l-80 7 -41 -44z m789 -3689
c19 -5 45 -19 57 -30 12 -12 22 -17 22 -13 0 4 6 -2 13 -13 51 -89 51 -88 51
-184 1 -52 -3 -104 -8 -115 -5 -11 -10 -22 -11 -25 -8 -31 -18 -50 -26 -50 -5
0 -9 -7 -9 -15 0 -18 -11 -32 -65 -85 -66 -65 -109 -100 -122 -100 -6 0 -18
-7 -27 -15 -8 -9 -17 -15 -18 -15 -2 1 -16 -4 -33 -10 -41 -16 -111 -29 -169
-32 -40 -3 -49 0 -51 15 -2 9 0 17 4 17 14 0 27 57 23 105 -5 73 -4 114 3 170
3 28 7 66 9 85 2 19 5 35 6 35 1 0 3 7 5 15 9 46 73 154 114 192 77 72 146 92
232 68z"/>
</g>
</svg>
