<svg version="1.0" width="23.931" height="23.856" xmlns:xlink="http://www.w3.org/1999/xlink" xmlns="http://www.w3.org/2000/svg"><defs><radialGradient cx="33.921" cy="32.026" r="12.011" fx="33.921" fy="32.026" id="l" xlink:href="#a" gradientUnits="userSpaceOnUse" gradientTransform="matrix(1.01194 -.01229 .01147 .9968 -.597 -2.892)"/><radialGradient cx="25.346" cy="30.31" r="12.011" fx="22.506" fy="25.064" id="m" xlink:href="#b" gradientUnits="userSpaceOnUse" gradientTransform="matrix(.70613 .48866 -.25589 .37514 15.78 3.046)"/><radialGradient cx="41.247" cy="11.365" r="4.918" fx="41.772" fy="11.681" id="p" xlink:href="#c" gradientUnits="userSpaceOnUse" gradientTransform="matrix(.35875 -.50613 1.2886 .92865 12.527 19.784)"/><radialGradient cx="15.116" cy="63.965" r="12.289" fx="13.292" fy="60.044" id="f" xlink:href="#d" gradientUnits="userSpaceOnUse" gradientTransform="matrix(1.1014 .0477 -.03084 .70196 15.085 -6.77)"/><radialGradient cx="15.116" cy="63.965" r="12.289" fx="15.116" fy="63.965" id="g" xlink:href="#d" gradientUnits="userSpaceOnUse" gradientTransform="matrix(1.08085 .04681 -.03084 .70196 .423 -14.35)"/><radialGradient cx="23.261" cy="33.479" r="11.057" fx="23.261" fy="33.479" id="k" xlink:href="#e" gradientUnits="userSpaceOnUse" gradientTransform="matrix(1.09454 .00512 -.00497 .94337 -.772 -1.48)"/><radialGradient cx="9.796" cy="24.748" r="11.057" fx="9.623" fy="19.022" id="i" xlink:href="#b" gradientUnits="userSpaceOnUse" gradientTransform="matrix(.60566 .55109 -.31326 .34954 13.582 6.089)"/><radialGradient cx="16.357" cy="27.468" r="11.057" fx="16.357" fy="27.468" id="h" xlink:href="#a" gradientUnits="userSpaceOnUse" gradientTransform="matrix(1.02496 .00839 -.00872 .9898 1.275 -3.434)"/><radialGradient cx="29.496" cy="-3.597" r="9.75" fx="29.496" fy="-3.597" id="o" xlink:href="#c" gradientUnits="userSpaceOnUse" gradientTransform="matrix(-.73855 .04954 -.0139 -.3551 53.373 1.286)"/><linearGradient id="c"><stop style="stop-color:#59a40f;stop-opacity:1" offset="0"/><stop style="stop-color:#306102;stop-opacity:1" offset="1"/></linearGradient><linearGradient id="b"><stop style="stop-color:#fff;stop-opacity:1" offset="0"/><stop style="stop-color:#fff;stop-opacity:0" offset="1"/></linearGradient><linearGradient id="e"><stop style="stop-color:#000;stop-opacity:1" offset="0"/><stop style="stop-color:#000;stop-opacity:0" offset="1"/></linearGradient><linearGradient id="a"><stop style="stop-color:#d50f0f;stop-opacity:1" offset="0"/><stop style="stop-color:#860000;stop-opacity:1" offset="1"/></linearGradient><linearGradient id="d"><stop style="stop-color:#000;stop-opacity:1" offset="0"/><stop style="stop-color:#000;stop-opacity:0" offset="1"/></linearGradient><linearGradient x1="42.551" y1="46.026" x2="22.734" y2="23.323" id="n" xlink:href="#a" gradientUnits="userSpaceOnUse" gradientTransform="matrix(.92007 .03985 -.04074 .92726 3.8 -2.293)"/><linearGradient x1="25.128" y1="38.802" x2="7.213" y2="18.548" id="j" xlink:href="#a" gradientUnits="userSpaceOnUse" gradientTransform="matrix(.94565 .04095 -.04171 .94937 3.271 -2.809)"/></defs><path d="M43.296 39.44c-.208 4.765-6.438 8.365-13.915 8.042-7.476-.324-13.366-4.45-13.156-9.215.208-4.765 6.438-8.366 13.915-8.042 7.476.324 13.367 4.45 13.156 9.215z" style="fill:url(#f)" transform="matrix(.53224 0 0 .50749 -.798 -.251)"/><path d="M28.07 31.834c-.207 4.765-6.324 8.37-13.661 8.053-7.337-.318-13.114-4.439-12.903-9.204.207-4.765 6.324-8.37 13.661-8.053 7.337.318 13.114 4.439 12.904 9.204z" style="fill:url(#g)" transform="matrix(.53224 0 0 .50749 -.798 -.251)"/><path d="M23.836 30.313c-3.51 4.432-10.086 7.114-14.631 3.714-5.27-2.203-6.055-9.086-3.773-14.219 2.564-5.764 8.135-6.618 14.27-3.116 6.134 3.502 8.075 8.643 4.134 13.621z" style="fill:url(#h);stroke:#520000" transform="matrix(.53224 0 0 .50749 -.798 -.251)"/><path d="M23.836 30.313c-3.51 4.432-10.086 7.114-14.631 3.714-5.27-2.203-6.055-9.086-3.773-14.219 2.564-5.764 8.135-6.618 14.27-3.116 6.134 3.502 8.075 8.643 4.134 13.621z" style="opacity:.66;fill:url(#i);stroke:#520000" transform="matrix(.53224 0 0 .50749 -.798 -.251)"/><path d="M12.678 15.596c-4.296.128-6.404 3.738-7.133 6.981-1.058 4.704.464 9.229 4.227 10.624 3.364 2.686 8.691 1.057 11.903-2.018 3.106-2.974 4.225-6.053 2.266-9.345-1.656-2.908-6.897-6.262-11.263-6.242z" style="fill:none;stroke:url(#j)" transform="matrix(.53224 0 0 .50749 -.798 -.251)"/><path d="M15.81 16.255c-.41 2.183 2.73 4.455 5.521 3.06" style="fill:none;stroke:#520000" transform="matrix(.53224 0 0 .50749 -.798 -.251)"/><path d="M24.555 30.152c-4.224 5.64-11.132 7.647-15.678 4.248-5.27-2.204-5.727-9.46-3.445-14.592 2.564-5.764 8.373-7.016 14.53-3.555 6.465 3.625 8.163 9.154 4.593 13.899z" style="fill:url(#k)" transform="matrix(.53224 0 0 .50749 -.798 -.251)"/><path d="M40.688 33.823c-2.353 5.74-8.421 10.478-14.162 8.13-6.144-.863-8.99-8.008-8.122-14.15.975-6.898 6.533-9.393 13.961-7.387 7.428 2.007 10.967 6.96 8.323 13.407z" style="fill:url(#l);stroke:#520000;stroke-width:.924534" transform="matrix(.53224 0 0 .50749 -.798 -.251)"/><path d="M40.665 33.812c-2.352 5.747-8.414 10.49-14.149 8.14-6.137-.863-8.98-8.016-8.112-14.164.975-6.906 6.527-9.405 13.948-7.397 7.42 2.008 10.954 6.966 8.313 13.421z" style="opacity:.66;fill:url(#m);stroke:#520000;stroke-width:.924534" transform="matrix(.53224 0 0 .50749 -.798 -.251)"/><path d="M27.288 20.74c-2.833.022-5.388 1.184-6.763 3.658-2.54 4.568-.961 10.662.987 13.327 2.327 3.189 4.416 3.019 5.592 3.38 3.95 1.49 8.203-.64 11.018-4.73 4.71-6.843 2.143-11.689-3.506-14.169-2.258-.991-4.79-1.486-7.328-1.466z" style="fill:none;stroke:url(#n);stroke-width:.924534" transform="matrix(.53224 0 0 .50749 -.798 -.251)"/><path d="M28.449 20.836c-.69 3.07 4.285 5.029 5.747 2.108" style="fill:none;stroke:#520000;stroke-width:.924534" transform="matrix(.53224 0 0 .50749 -.798 -.251)"/><path d="M26.3 2.039c4.157-2.74 12.834.807 12.834.807S32.2 9.685 28.92 8.766C26.113 7.973 18.509 2.75 18.509 2.75s4.158 1.672 7.79-.711z" style="fill:url(#o);stroke:#2d5a00;stroke-width:.989033" transform="matrix(.53224 0 0 .50749 -.798 -.251)"/><path d="M22.336 4.138c2.916 1.882 5.743 3.353 6.268 3.58 2.436 1.054 7.292-3.228 8.794-4.536-1.876-.626-7.359-2.075-10.181-.612-.992.514-2.852 1.527-4.881 1.568z" style="fill:none;stroke:#59aa0a;stroke-width:.989033;stroke-miterlimit:9" transform="matrix(.53224 0 0 .50749 -.798 -.251)"/><path d="m39.493 2.287-1.664 1.148C20.797 9.195 19.073 17.52 16.79 17.462c.574 1.14 1.701 1.363 3.205 1.462-1.85-2.01 5.446-9.717 16.533-13.84-4.263 6.055-5.303 17.437-6.801 17.56 1.201.812 1.917 1.134 3.176.486-1.201-1.32.916-12.05 4.912-18.075l2.724-1.648z" style="fill:#4e9a06;stroke:#275000" transform="matrix(.53224 0 0 .50749 -.798 -.251)"/><path d="M39.684 2.404c-.26 1.08-.766 1.963 4.971 5.443 2.655 1.61.68 4.77-.019 9.038-4.478-4.61-9.166-9.763-4.952-14.481z" style="fill:url(#p);stroke:#2d5a00;stroke-width:.925022" transform="matrix(.53224 0 0 .50749 -.798 -.251)"/><path d="M39.236 4.739c-.125.227-.809 1.88.463 4.474.83 1.845 2.844 4.156 4.4 5.788.82-3.434 1.634-5.314.23-6.267-.598-.405-2.192-1.331-3.293-2.186-1.47-1.14-1.8-1.81-1.8-1.81z" style="fill:none;stroke:#59aa0a;stroke-width:.925022" transform="matrix(.53224 0 0 .50749 -.798 -.251)"/></svg>