<?xml version="1.0" standalone="no"?>
<!DOCTYPE svg PUBLIC "-//W3C//DTD SVG 20010904//EN"
 "http://www.w3.org/TR/2001/REC-SVG-20010904/DTD/svg10.dtd">
<svg version="1.0" xmlns="http://www.w3.org/2000/svg"
 width="3834.000000pt" height="3834.000000pt" viewBox="0 0 3834.000000 3834.000000"
 preserveAspectRatio="xMidYMid meet">
<metadata>
Created by potrace 1.14, written by Peter Selinger 2001-2017
</metadata>
<g transform="translate(0.000000,3834.000000) scale(0.100000,-0.100000)"
fill="#000000" stroke="none">
<path d="M26494 38317 c-22 -23 -208 -197 -308 -288 -33 -30 -89 -82 -125
-115 -37 -34 -83 -77 -103 -95 -20 -19 -82 -77 -139 -129 -56 -52 -110 -102
-120 -111 -10 -8 -69 -62 -130 -120 -62 -57 -139 -129 -172 -159 -33 -30 -84
-79 -115 -107 -30 -29 -57 -53 -59 -53 -1 0 -22 -19 -46 -42 -24 -24 -88 -83
-142 -133 -54 -49 -110 -101 -125 -115 -15 -14 -73 -68 -130 -120 -57 -52
-120 -111 -140 -130 -20 -19 -74 -69 -120 -110 -45 -41 -99 -90 -119 -109
-118 -109 -156 -144 -238 -219 -88 -81 -91 -85 -83 -115 5 -18 11 -50 15 -72
5 -37 8 -55 19 -125 2 -14 7 -36 10 -50 3 -14 8 -41 11 -60 4 -33 7 -49 20
-110 3 -14 7 -43 11 -65 9 -69 14 -97 31 -185 9 -47 17 -94 18 -105 1 -11 5
-31 8 -45 3 -14 8 -43 11 -65 3 -22 7 -47 10 -55 5 -14 8 -34 22 -140 4 -25
10 -50 15 -56 5 -6 6 -13 4 -16 -3 -3 -1 -25 4 -49 5 -24 12 -66 16 -94 3 -27
10 -66 15 -85 5 -19 12 -55 15 -80 3 -25 12 -81 20 -125 8 -44 17 -96 20 -115
8 -52 17 -102 22 -125 2 -11 6 -33 8 -50 3 -16 7 -41 10 -55 9 -47 25 -135 30
-175 3 -22 8 -51 11 -63 3 -13 7 -42 11 -65 3 -23 12 -51 20 -63 14 -22 14
-75 -3 -494 -3 -69 -7 -183 -9 -255 -3 -71 -7 -197 -10 -280 -3 -82 -7 -224
-10 -315 -6 -200 -12 -282 -25 -348 -13 -71 -48 -207 -64 -250 -8 -21 -17 -46
-22 -57 -4 -11 -8 -24 -10 -30 -11 -47 -112 -256 -164 -341 -22 -36 -40 -68
-40 -70 0 -3 -8 -17 -18 -32 -11 -15 -47 -70 -82 -122 -54 -81 -190 -267 -225
-307 -5 -7 -14 -18 -20 -25 -35 -45 -120 -146 -186 -224 -24 -27 -69 -79 -99
-114 -30 -35 -66 -76 -80 -90 -14 -14 -40 -44 -59 -66 -18 -21 -52 -59 -75
-84 -23 -25 -75 -83 -116 -130 -40 -47 -76 -87 -79 -90 -4 -3 -38 -43 -76 -90
-38 -47 -72 -87 -75 -90 -3 -3 -18 -23 -35 -45 -16 -22 -32 -42 -36 -45 -3 -3
-30 -36 -60 -75 -29 -38 -57 -74 -61 -80 -5 -5 -35 -46 -68 -90 -33 -44 -63
-85 -68 -90 -28 -33 -307 -438 -404 -585 -173 -263 -408 -643 -408 -659 0 -5
-4 -11 -8 -13 -4 -1 -19 -23 -33 -48 -14 -25 -65 -112 -114 -195 -48 -82 -98
-168 -110 -190 -12 -22 -41 -72 -64 -112 -22 -39 -50 -89 -62 -110 -12 -21
-41 -72 -64 -113 -23 -41 -56 -100 -72 -130 -17 -30 -42 -75 -55 -100 -55 -98
-238 -429 -273 -495 -21 -38 -57 -104 -80 -145 -39 -70 -54 -97 -136 -247 -18
-32 -51 -92 -75 -134 -24 -42 -44 -79 -44 -83 0 -5 -8 -20 -18 -34 -11 -15
-35 -56 -54 -92 -47 -84 -175 -311 -188 -330 -6 -8 -13 -22 -17 -30 -4 -8 -39
-70 -80 -138 -40 -67 -73 -125 -73 -128 0 -3 -15 -29 -34 -57 -18 -29 -61 -99
-96 -157 -79 -132 -233 -378 -336 -537 -175 -269 -465 -683 -486 -691 -4 -2
-8 -10 -8 -17 0 -7 -3 -15 -7 -17 -7 -3 -75 -89 -148 -188 -35 -46 -129 -165
-136 -170 -3 -3 -39 -45 -79 -95 -41 -49 -76 -92 -79 -95 -6 -4 -113 -127
-161 -183 -41 -49 -299 -326 -415 -446 -235 -244 -608 -608 -790 -772 -32 -30
-73 -67 -90 -83 -16 -15 -56 -51 -89 -80 -32 -28 -77 -69 -101 -91 -23 -22
-66 -60 -95 -85 -29 -25 -60 -52 -69 -60 -18 -18 -135 -118 -170 -146 -13 -10
-31 -26 -40 -35 -9 -8 -43 -37 -76 -65 -33 -27 -62 -51 -65 -54 -3 -3 -54 -46
-115 -95 -60 -49 -119 -97 -130 -107 -17 -15 -110 -90 -280 -225 -27 -21 -78
-61 -186 -145 -19 -14 -61 -47 -94 -72 -33 -25 -64 -49 -70 -53 -112 -88 -146
-113 -154 -113 -5 0 -11 -3 -13 -7 -5 -12 -167 -132 -428 -317 -129 -91 -241
-171 -247 -176 -10 -9 -626 -421 -673 -450 -45 -29 -122 -79 -173 -112 -32
-21 -61 -38 -64 -38 -3 0 -28 -16 -54 -35 -27 -19 -51 -35 -53 -35 -2 0 -75
-44 -162 -98 -88 -54 -186 -113 -219 -132 -33 -18 -62 -36 -65 -39 -3 -3 -15
-11 -27 -18 -11 -7 -113 -65 -225 -129 -111 -64 -225 -128 -253 -142 -27 -14
-57 -31 -65 -37 -8 -7 -69 -40 -135 -75 -66 -34 -124 -66 -130 -70 -16 -12
-645 -336 -660 -340 -3 0 -64 -29 -137 -64 -260 -124 -433 -202 -643 -291 -88
-37 -168 -72 -179 -77 -10 -5 -35 -16 -55 -23 -20 -7 -54 -21 -76 -31 -22 -10
-45 -19 -51 -20 -6 -1 -27 -9 -45 -18 -119 -55 -1108 -405 -1219 -431 -8 -2
-58 -18 -110 -35 -52 -17 -102 -33 -110 -35 -8 -2 -82 -25 -165 -50 -82 -26
-157 -48 -165 -50 -8 -2 -96 -27 -195 -55 -99 -29 -187 -53 -195 -55 -18 -5
-107 -28 -320 -84 -131 -35 -282 -72 -353 -86 -9 -2 -21 -6 -26 -9 -5 -3 -28
-8 -51 -11 -23 -3 -51 -10 -61 -16 -11 -5 -19 -8 -19 -5 0 3 -15 0 -32 -5 -18
-5 -46 -12 -62 -15 -16 -3 -97 -20 -180 -39 -83 -18 -164 -36 -181 -39 -16 -2
-41 -7 -55 -11 -14 -3 -37 -7 -53 -10 -15 -3 -58 -12 -95 -19 -37 -8 -83 -17
-102 -20 -19 -3 -104 -19 -188 -36 -85 -16 -158 -28 -162 -25 -5 3 -11 1 -15
-4 -3 -5 -13 -9 -23 -9 -9 0 -33 -2 -52 -6 -48 -8 -172 -25 -179 -24 -3 0 -8
0 -11 -1 -3 -2 -27 -4 -55 -5 -27 -2 -81 -7 -120 -11 -38 -4 -92 -8 -120 -10
-27 -2 -68 -6 -90 -9 -22 -3 -71 -8 -110 -11 -38 -4 -77 -8 -85 -10 -8 -2 -40
-7 -70 -10 -73 -8 -121 -14 -150 -20 -14 -3 -38 -8 -55 -10 -118 -21 -285 -59
-343 -79 -23 -8 -46 -15 -50 -16 -12 -1 -45 -11 -67 -20 -105 -44 -169 -64
-215 -66 -119 -6 -272 -13 -420 -20 -226 -9 -206 -5 -213 -44 -6 -34 -27 -112
-34 -130 -3 -8 -7 -24 -8 -35 -1 -11 -8 -40 -15 -65 -8 -25 -14 -48 -16 -52
-1 -5 -2 -9 -3 -10 -2 -2 -4 -14 -7 -28 -2 -14 -13 -60 -25 -104 -11 -43 -22
-87 -25 -97 -2 -10 -6 -29 -9 -40 -2 -12 -9 -36 -14 -53 -10 -30 -79 -303 -86
-339 -2 -9 -6 -21 -9 -25 -3 -5 -7 -19 -9 -33 -3 -13 -15 -62 -27 -109 -12
-47 -23 -93 -25 -102 -2 -9 -11 -44 -21 -78 -10 -36 -13 -64 -8 -69 5 -5 119
-90 254 -190 135 -100 252 -187 260 -194 8 -7 31 -23 50 -37 43 -30 56 -40 80
-62 14 -12 21 -14 26 -6 5 8 9 7 13 -3 20 -52 271 -423 311 -459 3 -3 34 -39
70 -80 66 -78 326 -337 402 -402 24 -20 53 -45 66 -56 48 -41 202 -165 246
-197 15 -11 55 -41 89 -66 61 -45 373 -255 439 -294 18 -11 44 -27 58 -35 14
-8 49 -30 78 -47 29 -18 55 -33 57 -33 3 0 22 -10 43 -23 184 -115 648 -338
907 -436 33 -13 69 -27 80 -32 27 -12 157 -56 215 -74 3 -1 12 -4 20 -8 50
-19 310 -95 356 -103 15 -3 31 -7 36 -10 5 -3 21 -8 36 -10 15 -3 45 -10 67
-16 22 -6 49 -12 60 -14 11 -2 61 -13 110 -24 50 -11 142 -29 205 -40 63 -11
124 -22 135 -24 28 -5 113 -17 155 -22 19 -1 49 -5 65 -8 31 -6 83 -11 195
-21 36 -4 83 -8 105 -11 45 -5 177 -13 305 -19 217 -10 764 -4 935 10 39 3
102 8 140 11 39 2 90 7 115 10 25 2 69 6 99 9 74 7 149 14 191 20 19 3 55 7
80 10 25 4 56 8 70 10 14 2 47 7 74 10 27 3 52 8 57 10 4 3 11 0 15 -7 4 -7 4
-10 -1 -6 -4 4 -20 -1 -34 -10 -14 -10 -37 -23 -51 -30 -14 -7 -57 -29 -95
-50 -39 -21 -115 -62 -170 -91 -130 -70 -822 -418 -990 -498 -319 -152 -431
-203 -444 -203 -6 0 -11 -4 -11 -10 0 -5 -6 -10 -14 -10 -7 0 -51 -17 -97 -39
-46 -21 -106 -48 -134 -61 -27 -12 -78 -35 -113 -51 -35 -16 -66 -29 -68 -29
-3 0 -30 -11 -61 -25 -31 -14 -130 -58 -222 -96 -91 -39 -179 -76 -196 -84
-16 -7 -55 -22 -85 -34 -30 -12 -64 -26 -75 -31 -11 -5 -69 -29 -130 -53 -60
-24 -119 -48 -130 -52 -11 -5 -22 -9 -25 -10 -9 -3 -64 -25 -100 -40 -200 -82
-649 -244 -722 -260 -146 -32 -772 -231 -968 -308 -58 -23 -107 -42 -110 -42
-3 0 -14 -6 -25 -12 -11 -6 -23 -12 -27 -12 -28 -5 -280 -127 -353 -171 -27
-16 -65 -37 -82 -47 -18 -9 -33 -20 -33 -24 0 -8 -66 -36 -102 -43 -13 -3 -50
-12 -83 -21 -33 -8 -69 -17 -80 -20 -11 -2 -90 -22 -175 -44 -86 -22 -167 -42
-180 -44 -14 -2 -32 -7 -40 -10 -8 -4 -37 -11 -65 -17 -120 -25 -135 -32 -136
-65 -7 -218 -13 -349 -23 -600 -3 -55 -8 -179 -11 -275 -3 -96 -8 -215 -10
-265 -3 -49 -7 -164 -10 -255 l-6 -165 133 -52 c73 -29 147 -57 163 -64 17 -7
35 -13 40 -15 6 -1 73 -27 150 -58 436 -172 464 -183 467 -170 2 7 44 -26 93
-74 175 -169 335 -290 628 -475 31 -21 59 -37 61 -37 2 0 43 -23 92 -51 97
-56 418 -219 431 -219 5 0 25 -9 45 -20 61 -32 333 -143 488 -199 80 -29 154
-56 165 -61 25 -12 363 -120 390 -125 11 -3 58 -16 105 -30 47 -15 92 -28 100
-30 8 -1 42 -10 75 -19 69 -19 69 -19 155 -41 36 -9 76 -18 90 -21 14 -3 43
-10 65 -16 52 -13 358 -78 435 -92 14 -2 36 -7 50 -10 14 -3 41 -8 60 -10 19
-3 58 -9 85 -14 28 -5 57 -10 65 -10 8 0 29 -3 45 -7 17 -3 46 -8 65 -10 19
-2 35 -4 35 -5 0 -1 16 -3 35 -5 19 -1 51 -5 70 -8 19 -3 58 -9 85 -12 28 -3
70 -8 94 -11 24 -3 73 -8 110 -10 36 -3 84 -7 106 -9 302 -27 1118 -27 1375 0
19 2 72 5 117 7 46 2 83 5 83 8 0 3 19 5 43 6 39 1 127 10 187 19 14 2 48 6
75 10 28 3 61 8 75 10 14 2 50 6 80 9 30 3 65 8 76 10 12 2 39 7 60 10 22 3
50 8 64 11 14 3 41 7 60 10 57 7 100 15 185 32 44 8 94 18 110 20 39 7 60 11
60 13 0 1 14 3 30 5 17 2 46 7 65 11 19 4 41 8 49 10 7 1 34 8 60 14 25 6 56
13 69 15 28 6 32 7 167 39 61 15 121 29 135 32 14 2 32 7 40 10 8 3 74 21 145
39 72 18 143 38 159 44 16 7 31 9 34 6 3 -2 11 0 19 6 7 6 13 8 13 4 0 -4 7
-2 15 5 8 7 15 10 15 6 0 -3 12 -1 28 5 15 6 34 12 42 14 61 13 724 228 760
246 8 4 35 14 60 22 71 24 402 148 435 162 17 8 127 53 245 100 118 48 221 92
229 98 8 7 17 11 20 11 9 -2 28 5 101 38 36 17 70 31 75 32 6 2 36 15 68 30
32 14 59 26 62 26 3 0 74 32 243 111 46 21 85 39 87 39 2 0 70 31 150 70 80
38 151 70 156 70 5 0 9 5 9 10 0 6 3 9 8 8 4 -2 118 52 254 120 136 67 252
122 257 122 5 0 11 4 13 8 2 5 39 27 83 49 44 22 118 61 165 86 47 24 121 64
165 87 l80 42 -36 -34 c-20 -18 -69 -62 -109 -98 -39 -36 -91 -83 -115 -105
-23 -22 -71 -65 -105 -95 -34 -30 -80 -71 -101 -90 -33 -30 -62 -56 -175 -155
-12 -11 -31 -27 -41 -36 -78 -66 -193 -166 -218 -188 -16 -14 -57 -49 -90 -76
-33 -28 -62 -53 -65 -56 -6 -7 -192 -163 -250 -209 -24 -19 -48 -40 -54 -45
-12 -11 -417 -340 -480 -390 -21 -16 -46 -37 -56 -45 -10 -8 -31 -24 -46 -35
-15 -11 -32 -24 -38 -30 -7 -5 -32 -26 -56 -45 -25 -19 -52 -40 -60 -47 -8 -7
-62 -49 -120 -93 -58 -44 -112 -86 -120 -93 -9 -6 -42 -32 -75 -57 -33 -25
-66 -51 -73 -58 -8 -6 -23 -17 -34 -23 -11 -6 -27 -17 -36 -25 -9 -9 -48 -38
-87 -67 -38 -28 -74 -55 -80 -60 -5 -4 -84 -62 -175 -128 -91 -67 -194 -142
-230 -168 -94 -69 -402 -285 -510 -359 -30 -20 -57 -40 -60 -43 -3 -3 -20 -14
-37 -24 -18 -11 -33 -23 -33 -27 0 -4 -6 -8 -13 -8 -7 0 -22 -8 -33 -17 -31
-29 -312 -213 -323 -213 -6 0 -11 -3 -11 -7 0 -5 -10 -13 -23 -19 -12 -6 -107
-61 -212 -121 -104 -61 -266 -154 -360 -208 -93 -53 -177 -104 -186 -111 -8
-8 -19 -14 -22 -14 -4 0 -33 -16 -64 -36 -121 -76 -148 -94 -159 -101 -14 -11
-40 -27 -101 -63 -29 -17 -53 -36 -53 -41 0 -5 -5 -9 -10 -9 -10 0 -54 -28
-87 -55 -6 -5 -28 -21 -48 -35 -137 -94 -325 -252 -465 -391 -68 -68 -96 -87
-236 -159 -156 -81 -241 -125 -519 -271 -77 -40 -149 -77 -161 -83 -20 -10
-20 -12 -8 -61 8 -27 16 -61 19 -75 2 -14 21 -95 41 -180 19 -85 37 -164 39
-175 2 -11 22 -101 45 -200 23 -99 43 -188 45 -198 2 -10 6 -26 9 -35 3 -9 8
-29 11 -44 13 -67 17 -88 36 -163 10 -44 21 -89 23 -100 2 -11 13 -60 25 -110
11 -49 23 -101 25 -115 2 -14 9 -37 14 -51 6 -15 9 -29 6 -32 -2 -2 0 -16 6
-31 5 -15 12 -41 15 -59 10 -55 27 -122 34 -129 3 -4 33 -10 66 -13 33 -3 76
-8 95 -11 19 -3 58 -7 85 -10 28 -3 61 -7 75 -9 14 -2 52 -7 85 -10 33 -4 78
-9 100 -11 22 -3 56 -7 75 -9 117 -13 195 -23 255 -30 37 -5 80 -10 180 -20
22 -2 40 -4 40 -5 0 -1 18 -3 40 -6 22 -2 52 -6 67 -9 21 -3 26 -1 21 11 -4
10 27 -2 83 -32 176 -94 312 -157 474 -219 52 -20 104 -41 115 -45 11 -5 38
-14 60 -20 22 -6 47 -14 55 -17 8 -4 17 -7 20 -8 3 -1 12 -4 20 -8 53 -20 336
-101 400 -113 14 -3 51 -12 83 -20 52 -13 100 -24 177 -39 14 -3 45 -10 70
-15 25 -6 54 -12 65 -14 29 -5 101 -17 128 -21 12 -2 36 -6 52 -9 45 -9 80
-14 200 -32 22 -3 54 -7 70 -9 17 -2 46 -6 65 -9 19 -2 62 -8 95 -11 33 -4 71
-8 85 -10 97 -12 282 -28 465 -40 199 -14 424 -19 785 -20 416 0 608 6 915 29
155 11 277 23 415 41 19 2 60 7 90 10 30 4 66 8 80 10 14 2 45 7 70 10 25 3
57 8 73 11 35 5 75 11 162 25 39 6 81 13 95 16 14 3 36 7 50 9 14 1 36 5 50 9
14 3 40 8 59 11 18 3 43 8 55 10 11 3 32 7 46 10 14 2 36 7 50 10 14 4 34 8
45 10 11 1 43 8 70 14 28 6 61 14 75 16 14 3 33 7 42 10 9 3 25 6 35 8 10 2
56 14 103 26 47 12 94 23 105 26 36 7 59 13 120 30 33 9 68 18 77 19 9 2 26 9
37 15 12 6 21 9 21 6 0 -2 37 7 83 20 45 14 114 34 152 45 39 11 77 23 85 26
8 3 20 7 26 8 30 7 319 104 479 162 280 101 712 276 920 373 22 10 75 35 117
54 43 20 79 36 80 35 2 -1 32 14 68 34 36 19 68 35 73 36 36 5 795 407 939
498 21 12 40 23 43 23 2 0 62 34 132 77 71 42 140 83 155 92 72 42 412 256
448 281 8 5 92 61 185 122 94 62 172 115 175 118 3 3 39 28 80 55 41 28 82 55
90 62 8 7 96 69 195 140 99 70 185 131 190 136 6 4 75 56 155 115 80 59 152
113 160 120 8 7 56 42 105 79 50 37 92 69 95 72 3 4 41 33 85 66 44 33 82 62
85 65 3 3 95 77 205 165 201 160 423 342 590 485 50 42 100 85 113 96 13 10
34 28 46 39 12 11 51 45 86 75 35 30 75 65 88 78 14 12 48 41 75 65 28 23 66
57 86 75 19 19 64 59 99 90 136 121 274 247 428 391 390 365 1121 1094 1320
1316 15 17 63 68 108 116 77 81 230 247 269 293 10 11 37 41 60 66 36 39 116
128 222 249 17 18 35 39 40 45 6 6 53 60 105 121 52 60 100 115 105 121 6 6
30 35 55 65 25 29 61 72 81 94 93 104 584 705 689 844 14 18 49 63 78 99 69
87 69 87 122 157 51 69 51 69 85 112 22 27 303 404 349 468 8 11 39 53 68 92
75 103 272 380 310 437 7 10 25 35 39 55 92 131 339 495 374 552 6 9 23 36 39
60 16 24 55 85 87 134 32 50 63 95 69 102 5 7 10 14 10 17 0 2 19 34 43 69 23
36 67 104 97 152 30 48 65 103 78 122 12 19 31 51 42 73 11 21 25 44 32 51 7
8 20 28 28 44 8 17 17 32 20 35 7 7 223 368 304 510 37 63 71 122 76 130 5 8
23 40 40 70 16 30 40 73 53 95 34 58 172 307 180 325 4 8 19 35 33 60 14 25
56 104 94 175 38 72 89 168 114 215 55 103 346 685 412 825 119 254 149 319
279 610 15 33 33 74 40 90 33 71 198 462 205 485 5 14 34 86 65 160 31 74 58
142 60 151 2 9 12 36 23 60 29 64 206 540 232 624 7 22 15 45 19 50 3 6 7 15
8 20 1 6 54 165 118 354 63 189 117 353 119 365 3 11 18 62 34 111 16 50 33
104 37 120 12 44 10 39 50 175 21 69 39 132 40 140 2 8 4 15 5 15 1 0 3 7 5
15 2 8 24 92 50 185 26 94 48 179 49 190 2 11 6 27 9 35 10 25 40 147 51 205
1 6 5 16 9 23 5 6 6 12 4 12 -2 0 9 53 25 118 15 64 30 126 32 137 2 11 11 54
20 95 32 142 30 132 80 384 20 99 38 191 41 205 5 32 33 187 39 221 3 14 7 41
10 60 3 19 7 44 10 55 2 11 7 43 10 70 4 28 9 61 11 75 12 76 35 220 39 250 7
54 27 192 31 220 2 14 7 52 10 85 4 33 8 62 10 65 2 3 6 34 10 69 4 34 8 72
11 84 5 28 18 119 30 212 3 28 8 59 9 70 2 11 6 43 10 70 3 28 8 61 10 75 6
40 14 102 19 145 6 46 14 107 21 150 6 41 16 113 20 155 2 19 6 53 9 75 3 22
7 60 10 85 2 25 7 61 10 80 8 51 15 99 21 161 3 30 7 70 9 89 3 19 7 62 11 95
3 33 8 71 10 85 2 14 7 57 11 95 3 39 8 81 10 95 1 14 6 54 9 90 3 36 8 85 11
110 2 25 6 74 9 110 3 36 8 85 10 110 2 25 7 77 10 115 3 39 8 95 11 125 2 30
6 87 9 125 2 39 7 108 10 155 6 87 8 128 22 420 4 91 8 390 8 665 -1 538 -7
737 -31 1040 -4 44 -8 100 -9 125 -2 25 -4 45 -4 45 -1 0 -4 32 -6 70 -3 39
-6 86 -9 105 -7 57 -26 243 -31 301 -2 20 -6 56 -10 80 -3 24 -8 55 -10 69 -2
14 -6 43 -9 65 -3 22 -8 60 -11 85 -5 41 -35 234 -51 325 -2 11 -6 38 -9 60
-3 22 -8 54 -11 70 -3 17 -8 44 -10 60 -3 17 -14 73 -25 126 -10 53 -21 110
-23 125 -2 16 -6 40 -9 54 -17 66 -47 198 -51 220 -6 35 -64 255 -82 311 -8
25 -16 54 -18 65 -5 23 -54 192 -63 214 -4 8 -7 18 -8 23 -2 4 -3 8 -5 10 -1
1 -3 9 -5 18 -5 26 -126 381 -145 424 -5 11 -30 76 -55 145 -26 69 -54 138
-61 154 -8 16 -14 33 -14 39 0 5 -10 30 -23 56 -13 25 -24 49 -25 54 -1 4 -9
23 -17 43 -8 20 -15 38 -15 40 0 2 -16 38 -35 80 -19 41 -35 77 -35 80 0 3
-31 72 -117 254 -62 131 -188 381 -247 488 -31 56 -56 107 -56 112 0 6 -4 10
-10 10 -5 0 -10 4 -10 10 0 5 -20 44 -45 86 -25 41 -45 77 -45 79 0 11 -296
476 -330 518 -5 7 -54 73 -109 147 -112 151 -110 149 -209 269 -207 252 -566
635 -722 772 -34 30 -77 68 -94 84 -17 17 -65 59 -106 95 -41 36 -82 72 -90
80 -9 8 -52 47 -95 85 -43 39 -108 97 -143 130 -36 33 -84 77 -106 98 -264
243 -540 549 -756 837 -35 47 -71 92 -80 100 -17 17 -135 158 -196 235 -21 27
-49 61 -61 75 -13 14 -23 28 -23 31 0 3 -13 22 -30 40 -16 19 -30 37 -30 40 0
3 -8 15 -17 27 -10 11 -25 30 -33 42 -8 12 -36 51 -62 87 -27 35 -48 68 -48
73 0 4 -3 10 -7 12 -5 2 -26 30 -48 63 -22 33 -42 62 -46 65 -5 5 -128 184
-220 320 -24 36 -46 67 -49 70 -14 14 -70 102 -70 110 0 6 -4 10 -10 10 -5 0
-10 5 -10 11 0 6 -13 28 -30 49 -16 21 -30 43 -30 49 0 6 -4 11 -8 11 -4 0
-23 26 -42 58 -19 31 -37 59 -40 62 -7 7 -84 123 -89 135 -2 5 -25 41 -51 80
-47 71 -130 199 -144 223 -5 8 -1 18 10 26 9 7 15 19 12 27 -7 18 -233 380
-247 396 -6 7 -11 15 -11 18 0 4 -20 38 -45 76 -25 38 -45 72 -45 75 0 3 -10
20 -23 37 -12 18 -27 41 -34 52 -7 11 -38 62 -70 114 -32 51 -66 108 -77 125
-10 17 -22 33 -27 34 -5 2 -9 8 -9 13 0 5 -39 72 -87 150 -49 77 -97 155 -108
173 -11 18 -40 65 -65 105 -25 39 -49 80 -55 90 -5 9 -29 46 -51 82 -23 35
-72 114 -109 174 -37 61 -101 163 -141 227 -41 64 -74 120 -74 123 0 3 -5 11
-11 18 -8 9 -153 242 -328 527 -68 110 -187 301 -200 320 -10 14 -20 32 -24
40 -4 8 -20 34 -35 57 -15 23 -49 77 -75 120 -27 43 -73 116 -102 163 -30 47
-65 102 -77 124 -69 116 -160 256 -166 255 -4 0 -16 -10 -28 -22z"/>
</g>
</svg>
